<svg width="16" height="16" viewBox="0 0 16 16" fill="none" xmlns="http://www.w3.org/2000/svg">
    <g clip-path="url(#clip0_313_5)">
        <path d="M4.75 7C4.55109 7 4.36032 7.07902 4.21967 7.21967C4.07902 7.36032 4 7.55109 4 7.75C4 7.94891 4.07902 8.13968 4.21967 8.28033C4.36032 8.42098 4.55109 8.5 4.75 8.5H9.25C9.44891 8.5 9.63968 8.42098 9.78033 8.28033C9.92098 8.13968 10 7.94891 10 7.75C10 7.55109 9.92098 7.36032 9.78033 7.21967C9.63968 7.07902 9.44891 7 9.25 7H4.75ZM5 4.75C5 4.55109 5.07902 4.36032 5.21967 4.21967C5.36032 4.07902 5.55109 4 5.75 4H11.25C11.4489 4 11.6397 4.07902 11.7803 4.21967C11.921 4.36032 12 4.55109 12 4.75C12 4.94891 11.921 5.13968 11.7803 5.28033C11.6397 5.42098 11.4489 5.5 11.25 5.5H5.75C5.55109 5.5 5.36032 5.42098 5.21967 5.28033C5.07902 5.13968 5 4.94891 5 4.75ZM6.75 10C6.55109 10 6.36032 10.079 6.21967 10.2197C6.07902 10.3603 6 10.5511 6 10.75C6 10.9489 6.07902 11.1397 6.21967 11.2803C6.36032 11.421 6.55109 11.5 6.75 11.5H11.25C11.4489 11.5 11.6397 11.421 11.7803 11.2803C11.921 11.1397 12 10.9489 12 10.75C12 10.5511 11.921 10.3603 11.7803 10.2197C11.6397 10.079 11.4489 10 11.25 10H6.75Z" fill="#E3E3E3"/>
        <path d="M0 1.75C0 0.784 0.784 0 1.75 0H14.25C15.216 0 16 0.784 16 1.75V14.25C16 14.7141 15.8156 15.1592 15.4874 15.4874C15.1592 15.8156 14.7141 16 14.25 16H1.75C1.28587 16 0.840752 15.8156 0.512563 15.4874C0.184374 15.1592 0 14.7141 0 14.25L0 1.75ZM1.75 1.5C1.6837 1.5 1.62011 1.52634 1.57322 1.57322C1.52634 1.62011 1.5 1.6837 1.5 1.75V14.25C1.5 14.388 1.612 14.5 1.75 14.5H14.25C14.3163 14.5 14.3799 14.4737 14.4268 14.4268C14.4737 14.3799 14.5 14.3163 14.5 14.25V1.75C14.5 1.6837 14.4737 1.62011 14.4268 1.57322C14.3799 1.52634 14.3163 1.5 14.25 1.5H1.75Z" fill="#E3E3E3"/>
    </g>
    <defs>
        <clipPath id="clip0_313_5">
            <rect width="16" height="16" fill="white"/>
        </clipPath>
    </defs>
</svg>
