<svg width="16" height="16" viewBox="0 0 16 16" fill="none" xmlns="http://www.w3.org/2000/svg">
    <g clip-path="url(#clip0_211_79)">
        <path d="M2.0001 7.25007C1.99679 6.55971 2.13032 5.87553 2.39299 5.23707C2.65565 4.59862 3.04224 4.01855 3.53041 3.53038C4.01857 3.04221 4.59864 2.65563 5.2371 2.39296C5.87555 2.1303 6.55973 1.99676 7.2501 2.00007C8.25146 1.99475 9.23324 2.27745 10.0784 2.8145C10.9236 3.35154 11.5966 4.12027 12.0171 5.02907C13.1163 5.14998 14.1317 5.67386 14.8673 6.49957C15.6029 7.32528 16.0065 8.39425 16.0001 9.50007C16.0001 12.0051 14.0051 14.0001 11.5001 14.0001H3.5001C3.03951 14.0035 2.58282 13.9154 2.15662 13.7407C1.73042 13.566 1.34321 13.3084 1.01751 12.9827C0.691814 12.657 0.434138 12.2698 0.259471 11.8435C0.0848054 11.4173 -0.0033622 10.9607 9.8039e-05 10.5001C9.8039e-05 9.09007 0.809098 7.88607 2.0011 7.33007L2.0001 7.25007ZM3.5401 7.73207C3.56609 7.91488 3.52373 8.10084 3.42114 8.25436C3.31855 8.40787 3.16294 8.51815 2.9841 8.56407C2.1241 8.78407 1.5001 9.55107 1.5001 10.5001C1.5001 11.6241 2.3761 12.5001 3.5001 12.5001H11.5001C13.1761 12.5001 14.5001 11.1761 14.5001 9.50007C14.5001 7.82407 13.1761 6.50007 11.5001 6.50007C11.3442 6.50018 11.1921 6.45169 11.0651 6.36136C10.938 6.27103 10.8422 6.14335 10.7911 5.99607C10.5355 5.26234 10.0565 4.62707 9.42143 4.17942C8.78636 3.73177 8.02706 3.49421 7.2501 3.50007C5.1601 3.50007 3.5001 5.16007 3.5001 7.25007C3.5021 7.39607 3.5141 7.54207 3.5351 7.68607L3.5391 7.72207L3.5401 7.73007V7.73207Z" fill="#E3E3E3"/>
    </g>
    <defs>
        <clipPath id="clip0_211_79">
            <rect width="16" height="16" fill="white"/>
        </clipPath>
    </defs>
</svg>
