<svg width="16" height="16" viewBox="0 0 16 16" fill="none" xmlns="http://www.w3.org/2000/svg">
    <g clip-path="url(#clip0_211_85)">
        <path d="M7.2501 1.99983C6.5601 1.99983 5.8991 2.12983 5.2931 2.37083C5.10824 2.44429 4.96014 2.58818 4.88138 2.77084C4.80261 2.9535 4.79963 3.15997 4.8731 3.34483C4.94656 3.52968 5.09045 3.67778 5.27311 3.75655C5.45577 3.83532 5.66224 3.83829 5.8471 3.76483C6.2771 3.59483 6.7501 3.49983 7.2501 3.49983C8.02706 3.49396 8.78636 3.73152 9.42143 4.17917C10.0565 4.62683 10.5355 5.2621 10.7911 5.99583C10.8422 6.14311 10.938 6.27079 11.0651 6.36112C11.1921 6.45145 11.3442 6.49993 11.5001 6.49983C13.1761 6.49983 14.5001 7.82383 14.5001 9.49983C14.504 10.1997 14.2631 10.8789 13.8191 11.4198C13.6988 11.5738 13.6432 11.7686 13.6644 11.9629C13.6855 12.1571 13.7817 12.3355 13.9323 12.4599C14.083 12.5844 14.2762 12.6451 14.471 12.6292C14.6658 12.6133 14.8466 12.5221 14.9751 12.3748C15.6416 11.5653 16.0041 10.5484 16.0001 9.49983C16.0065 8.39401 15.6029 7.32504 14.8673 6.49933C14.1317 5.67361 13.1163 5.14973 12.0171 5.02883C11.5966 4.12002 10.9236 3.35129 10.0784 2.81425C9.23324 2.27721 8.25146 1.9945 7.2501 1.99983ZM0.720098 1.71983C0.860723 1.57938 1.05135 1.50049 1.2501 1.50049C1.44885 1.50049 1.63947 1.57938 1.7801 1.71983L4.0911 4.02983C4.1211 4.05483 4.1471 4.08183 4.1711 4.10983L12.7021 12.6418L12.7371 12.6758L14.7801 14.7198C14.8788 14.8115 14.951 14.9281 14.989 15.0574C15.027 15.1866 15.0295 15.3237 14.9961 15.4542C14.9627 15.5848 14.8948 15.7039 14.7994 15.799C14.704 15.8941 14.5847 15.9618 14.4541 15.9948C14.3237 16.0282 14.1868 16.0259 14.0576 15.9881C13.9284 15.9502 13.8118 15.8783 13.7201 15.7798L11.9201 13.9808C11.7805 13.9936 11.6403 14 11.5001 13.9998H3.5001C3.03951 14.0033 2.58282 13.9151 2.15662 13.7405C1.73042 13.5658 1.34321 13.3081 1.01751 12.9824C0.691814 12.6567 0.434138 12.2695 0.259471 11.8433C0.0848054 11.4171 -0.0033622 10.9604 9.8039e-05 10.4998C9.8039e-05 9.08983 0.809098 7.88583 2.0011 7.32983C1.98263 6.41428 2.20542 5.51 2.6471 4.70783L0.720098 2.77983C0.579648 2.6392 0.500758 2.44858 0.500758 2.24983C0.500758 2.05108 0.579648 1.86045 0.720098 1.71983ZM3.5001 7.24983C3.5041 7.41083 3.5181 7.57183 3.5411 7.73083C3.56731 7.91392 3.52494 8.10025 3.42213 8.254C3.31932 8.40776 3.16332 8.5181 2.9841 8.56383C2.1241 8.78383 1.5001 9.54983 1.5001 10.4998C1.5001 11.6238 2.3761 12.4998 3.5001 12.4998H10.4401L3.7711 5.83183C3.5907 6.28275 3.49869 6.76416 3.5001 7.24983Z" fill="#E3E3E3"/>
    </g>
    <defs>
        <clipPath id="clip0_211_85">
            <rect width="16" height="16" fill="white"/>
        </clipPath>
    </defs>
</svg>
