<svg width="16" height="16" viewBox="0 0 16 16" fill="none" xmlns="http://www.w3.org/2000/svg">
    <g clip-path="url(#clip0_367_8)">
        <path d="M0 6.75C0 5.784 0.784 5 1.75 5H3.25C3.44891 5 3.63968 5.07902 3.78033 5.21967C3.92098 5.36032 4 5.55109 4 5.75C4 5.94891 3.92098 6.13968 3.78033 6.28033C3.63968 6.42098 3.44891 6.5 3.25 6.5H1.75C1.6837 6.5 1.62011 6.52634 1.57322 6.57322C1.52634 6.62011 1.5 6.6837 1.5 6.75V14.25C1.5 14.388 1.612 14.5 1.75 14.5H9.25C9.3163 14.5 9.37989 14.4737 9.42678 14.4268C9.47366 14.3799 9.5 14.3163 9.5 14.25V12.75C9.5 12.5511 9.57902 12.3603 9.71967 12.2197C9.86032 12.079 10.0511 12 10.25 12C10.4489 12 10.6397 12.079 10.7803 12.2197C10.921 12.3603 11 12.5511 11 12.75V14.25C11 14.7141 10.8156 15.1592 10.4874 15.4874C10.1592 15.8156 9.71413 16 9.25 16H1.75C1.28587 16 0.840752 15.8156 0.512563 15.4874C0.184374 15.1592 0 14.7141 0 14.25L0 6.75Z" fill="#B4B4B4"/>
        <path d="M5 1.75C5 0.784 5.784 0 6.75 0H14.25C15.216 0 16 0.784 16 1.75V9.25C16 9.71413 15.8156 10.1592 15.4874 10.4874C15.1592 10.8156 14.7141 11 14.25 11H6.75C6.28587 11 5.84075 10.8156 5.51256 10.4874C5.18437 10.1592 5 9.71413 5 9.25V1.75ZM6.75 1.5C6.6837 1.5 6.62011 1.52634 6.57322 1.57322C6.52634 1.62011 6.5 1.6837 6.5 1.75V9.25C6.5 9.388 6.612 9.5 6.75 9.5H14.25C14.3163 9.5 14.3799 9.47366 14.4268 9.42678C14.4737 9.37989 14.5 9.3163 14.5 9.25V1.75C14.5 1.6837 14.4737 1.62011 14.4268 1.57322C14.3799 1.52634 14.3163 1.5 14.25 1.5H6.75Z" fill="#B4B4B4"/>
    </g>
    <defs>
        <clipPath id="clip0_367_8">
            <rect width="16" height="16" fill="white"/>
        </clipPath>
    </defs>
</svg>
