<svg width="25" height="25" viewBox="0 0 25 25" fill="none" xmlns="http://www.w3.org/2000/svg">
    <g clip-path="url(#clip0_108_35)">
        <path d="M20.4012 4.96599C18.8188 4.24408 17.1484 3.73193 15.4325 3.44263C15.1977 3.86092 14.9853 4.29128 14.796 4.73191C12.9683 4.45745 11.1096 4.45745 9.28186 4.73191C9.09254 4.29132 8.88009 3.86097 8.64539 3.44263C6.9284 3.73437 5.25686 4.24774 3.67295 4.96976C0.52848 9.60591 -0.323937 14.1269 0.102272 18.5837C1.94375 19.9396 4.0049 20.9707 6.19611 21.6323C6.6895 20.971 7.1261 20.2695 7.50125 19.5351C6.7887 19.2699 6.10095 18.9427 5.44598 18.5573C5.61836 18.4327 5.78695 18.3044 5.94985 18.1798C7.85566 19.0729 9.93576 19.536 12.0418 19.536C14.1478 19.536 16.2279 19.0729 18.1337 18.1798C18.2985 18.3138 18.4671 18.4422 18.6376 18.5573C17.9814 18.9433 17.2924 19.2712 16.5785 19.537C16.9532 20.271 17.3899 20.972 17.8837 21.6323C20.0768 20.9734 22.1395 19.9427 23.9813 18.5856C24.4814 13.4171 23.127 8.93767 20.4012 4.96599ZM8.04112 15.8428C6.85342 15.8428 5.87219 14.7687 5.87219 13.4473C5.87219 12.126 6.81932 11.0424 8.03733 11.0424C9.25534 11.0424 10.229 12.126 10.2081 13.4473C10.1873 14.7687 9.25155 15.8428 8.04112 15.8428ZM16.0425 15.8428C14.8529 15.8428 13.8754 14.7687 13.8754 13.4473C13.8754 12.126 14.8226 11.0424 16.0425 11.0424C17.2624 11.0424 18.2284 12.126 18.2076 13.4473C18.1868 14.7687 17.2529 15.8428 16.0425 15.8428Z" fill="#E3E3E3"/>
    </g>
    <defs>
        <clipPath id="clip0_108_35">
            <rect width="24.0836" height="24" fill="white" transform="translate(0 0.159912)"/>
        </clipPath>
    </defs>
</svg>
