<svg width="24" height="24" viewBox="0 0 24 24" fill="none" xmlns="http://www.w3.org/2000/svg">
    <path d="M11.205 16.17C11.3093 16.2745 11.4333 16.3574 11.5697 16.414C11.7061 16.4705 11.8523 16.4996 12 16.4996C12.1477 16.4996 12.2939 16.4705 12.4303 16.414C12.5667 16.3574 12.6907 16.2745 12.795 16.17L18.42 10.545C18.5244 10.4406 18.6072 10.3167 18.6637 10.1803C18.7202 10.0438 18.7493 9.89764 18.7493 9.75C18.7493 9.60236 18.7202 9.45616 18.6637 9.31975C18.6072 9.18334 18.5244 9.0594 18.42 8.955C18.3156 8.8506 18.1917 8.76778 18.0553 8.71128C17.9188 8.65478 17.7726 8.6257 17.625 8.6257C17.4774 8.6257 17.3312 8.65478 17.1947 8.71128C17.0583 8.76778 16.9344 8.8506 16.83 8.955L13.125 12.6585V2.625C13.125 2.32663 13.0065 2.04048 12.7955 1.8295C12.5845 1.61853 12.2984 1.5 12 1.5C11.7016 1.5 11.4155 1.61853 11.2045 1.8295C10.9935 2.04048 10.875 2.32663 10.875 2.625V12.6585L7.17 8.955C7.0656 8.8506 6.94166 8.76778 6.80525 8.71128C6.66884 8.65478 6.52265 8.6257 6.375 8.6257C6.07682 8.6257 5.79085 8.74415 5.58 8.955C5.4756 9.0594 5.39278 9.18334 5.33628 9.31975C5.27978 9.45616 5.2507 9.60236 5.2507 9.75C5.2507 10.0482 5.36915 10.3342 5.58 10.545L11.205 16.17ZM5.625 19.5C5.32663 19.5 5.04048 19.6185 4.8295 19.8295C4.61853 20.0405 4.5 20.3266 4.5 20.625C4.5 20.9234 4.61853 21.2095 4.8295 21.4205C5.04048 21.6315 5.32663 21.75 5.625 21.75H18.375C18.6734 21.75 18.9595 21.6315 19.1705 21.4205C19.3815 21.2095 19.5 20.9234 19.5 20.625C19.5 20.3266 19.3815 20.0405 19.1705 19.8295C18.9595 19.6185 18.6734 19.5 18.375 19.5H5.625Z" fill="#10E094"/>
</svg>
