<svg width="25" height="24" viewBox="0 0 25 24" fill="none" xmlns="http://www.w3.org/2000/svg">
    <g clip-path="url(#clip0_108_33)">
        <path d="M12.7063 0.244873C6.06728 0.244873 0.700317 5.63263 0.700317 12.298C0.700317 17.626 4.13911 22.1361 8.90964 23.7323C9.50608 23.8523 9.72455 23.473 9.72455 23.1539C9.72455 22.8744 9.70489 21.9166 9.70489 20.9187C6.36513 21.6372 5.66965 19.4819 5.66965 19.4819C5.13293 18.085 4.33768 17.7259 4.33768 17.7259C3.24458 16.9876 4.41731 16.9876 4.41731 16.9876C5.62984 17.0674 6.26609 18.2248 6.26609 18.2248C7.33929 20.0605 9.06864 19.5419 9.76436 19.2225C9.86365 18.4442 10.1819 17.9054 10.5198 17.6062C7.8561 17.3268 5.05356 16.2891 5.05356 11.6593C5.05356 10.3423 5.53031 9.26471 6.28575 8.42667C6.16656 8.1274 5.74903 6.88994 6.40519 5.23369C6.40519 5.23369 7.41891 4.91434 9.70464 6.47091C10.6832 6.20708 11.6925 6.07286 12.7063 6.07173C13.72 6.07173 14.7534 6.21157 15.7076 6.47091C17.9936 4.91434 19.0073 5.23369 19.0073 5.23369C19.6635 6.88994 19.2457 8.1274 19.1265 8.42667C19.9018 9.26471 20.3589 10.3423 20.3589 11.6593C20.3589 16.2891 17.5564 17.3067 14.8728 17.6062C15.3102 17.9853 15.6877 18.7036 15.6877 19.8411C15.6877 21.4574 15.668 22.7547 15.668 23.1536C15.668 23.473 15.8868 23.8523 16.483 23.7325C21.2535 22.1358 24.6923 17.626 24.6923 12.298C24.7119 5.63263 19.3253 0.244873 12.7063 0.244873Z" fill="#E3E3E3"/>
    </g>
    <defs>
        <clipPath id="clip0_108_33">
            <rect width="24.0836" height="24" fill="white" transform="translate(0.700317)"/>
        </clipPath>
    </defs>
</svg>
