<svg width="40" height="40" viewBox="0 0 40 40" fill="none" xmlns="http://www.w3.org/2000/svg">
    <rect x="1" y="1" width="38" height="38" rx="3" stroke="#18A5EC" stroke-width="2"/>
    <path d="M20.4541 18.5326V21.7168H24.9916C24.3983 23.6459 22.7858 25.0268 20.4541 25.0268C17.6775 25.0268 15.4266 22.7759 15.4266 20.0001C15.4266 17.2243 17.6775 14.9734 20.4541 14.9734C21.7025 14.9734 22.8425 15.4309 23.7216 16.1842L26.0666 13.8392C24.5858 12.4901 22.6158 11.6667 20.4541 11.6667C15.8508 11.6667 12.1191 15.3976 12.1191 20.0001C12.1191 24.6026 15.8508 28.3334 20.4541 28.3334C27.4508 28.3334 28.995 21.7918 28.3091 18.5434L20.4541 18.5326Z" fill="#18A5EC"/>
</svg>
