<svg width="24" height="24" viewBox="0 0 24 24" fill="none" xmlns="http://www.w3.org/2000/svg">
    <g clip-path="url(#clip0_212_225)">
        <path d="M0 12C0 8.8174 1.26428 5.76516 3.51472 3.51472C5.76516 1.26428 8.8174 0 12 0C15.1826 0 18.2348 1.26428 20.4853 3.51472C22.7357 5.76516 24 8.8174 24 12C24 15.1826 22.7357 18.2348 20.4853 20.4853C18.2348 22.7357 15.1826 24 12 24C8.8174 24 5.76516 22.7357 3.51472 20.4853C1.26428 18.2348 0 15.1826 0 12ZM12 2.25C9.41414 2.25 6.93419 3.27723 5.10571 5.10571C3.27723 6.93419 2.25 9.41414 2.25 12C2.25 14.5859 3.27723 17.0658 5.10571 18.8943C6.93419 20.7228 9.41414 21.75 12 21.75C14.5859 21.75 17.0658 20.7228 18.8943 18.8943C20.7228 17.0658 21.75 14.5859 21.75 12C21.75 9.41414 20.7228 6.93419 18.8943 5.10571C17.0658 3.27723 14.5859 2.25 12 2.25ZM10.38 9.1275C10.2467 9.39444 10.0144 9.59751 9.73138 9.69202C9.44839 9.78654 9.13944 9.76477 8.8725 9.6315C8.60556 9.49823 8.40249 9.26437 8.30798 8.98138C8.21346 8.69839 8.23523 8.38944 8.3685 8.1225C8.622 7.614 9.0225 7.071 9.642 6.657C10.2675 6.24 11.0535 6 12 6C12.8815 5.99398 13.7419 6.2699 14.4555 6.7875C15.21 7.353 15.75 8.235 15.75 9.375C15.75 10.047 15.5775 10.62 15.2565 11.1C14.949 11.5605 14.5515 11.8695 14.2185 12.093C14.055 12.201 13.8885 12.3 13.749 12.3855L13.74 12.3915C13.6081 12.4683 13.478 12.5483 13.35 12.6315C13.1893 12.7258 13.0487 12.8507 12.936 12.999C12.769 13.2437 12.5122 13.4126 12.2214 13.4691C11.9306 13.5256 11.6293 13.4651 11.3828 13.3008C11.1363 13.1364 10.9646 12.8816 10.9049 12.5914C10.8452 12.3013 10.9024 11.9993 11.064 11.751C11.34 11.355 11.694 11.0175 12.102 10.7595C12.2565 10.659 12.4125 10.5615 12.5715 10.467L12.582 10.461C12.732 10.3695 12.855 10.296 12.969 10.2195C13.1298 10.1248 13.2709 10 13.3845 9.852C13.44 9.771 13.5 9.6405 13.5 9.375C13.5057 9.22132 13.4727 9.06868 13.404 8.93108C13.3354 8.79348 13.2332 8.67534 13.107 8.5875C12.7819 8.36292 12.3951 8.24498 12 8.25C11.4465 8.25 11.1075 8.385 10.89 8.5305C10.6705 8.68122 10.4946 8.88714 10.38 9.1275ZM13.5 16.5C13.5 16.8978 13.342 17.2794 13.0607 17.5607C12.7794 17.842 12.3978 18 12 18C11.6022 18 11.2206 17.842 10.9393 17.5607C10.658 17.2794 10.5 16.8978 10.5 16.5C10.5 16.1022 10.658 15.7206 10.9393 15.4393C11.2206 15.158 11.6022 15 12 15C12.3978 15 12.7794 15.158 13.0607 15.4393C13.342 15.7206 13.5 16.1022 13.5 16.5Z" fill="#B4B4B4"/>
        <path d="M0 12C0 8.8174 1.26428 5.76516 3.51472 3.51472C5.76516 1.26428 8.8174 0 12 0C15.1826 0 18.2348 1.26428 20.4853 3.51472C22.7357 5.76516 24 8.8174 24 12C24 15.1826 22.7357 18.2348 20.4853 20.4853C18.2348 22.7357 15.1826 24 12 24C8.8174 24 5.76516 22.7357 3.51472 20.4853C1.26428 18.2348 0 15.1826 0 12ZM12 2.25C9.41414 2.25 6.93419 3.27723 5.10571 5.10571C3.27723 6.93419 2.25 9.41414 2.25 12C2.25 14.5859 3.27723 17.0658 5.10571 18.8943C6.93419 20.7228 9.41414 21.75 12 21.75C14.5859 21.75 17.0658 20.7228 18.8943 18.8943C20.7228 17.0658 21.75 14.5859 21.75 12C21.75 9.41414 20.7228 6.93419 18.8943 5.10571C17.0658 3.27723 14.5859 2.25 12 2.25ZM10.38 9.1275C10.2467 9.39444 10.0144 9.59751 9.73138 9.69202C9.44839 9.78654 9.13944 9.76477 8.8725 9.6315C8.60556 9.49823 8.40249 9.26437 8.30798 8.98138C8.21346 8.69839 8.23523 8.38944 8.3685 8.1225C8.622 7.614 9.0225 7.071 9.642 6.657C10.2675 6.24 11.0535 6 12 6C12.8815 5.99398 13.7419 6.2699 14.4555 6.7875C15.21 7.353 15.75 8.235 15.75 9.375C15.75 10.047 15.5775 10.62 15.2565 11.1C14.949 11.5605 14.5515 11.8695 14.2185 12.093C14.055 12.201 13.8885 12.3 13.749 12.3855L13.74 12.3915C13.6081 12.4683 13.478 12.5483 13.35 12.6315C13.1893 12.7258 13.0487 12.8507 12.936 12.999C12.769 13.2437 12.5122 13.4126 12.2214 13.4691C11.9306 13.5256 11.6293 13.4651 11.3828 13.3008C11.1363 13.1364 10.9646 12.8816 10.9049 12.5914C10.8452 12.3013 10.9024 11.9993 11.064 11.751C11.34 11.355 11.694 11.0175 12.102 10.7595C12.2565 10.659 12.4125 10.5615 12.5715 10.467L12.582 10.461C12.732 10.3695 12.855 10.296 12.969 10.2195C13.1298 10.1248 13.2709 10 13.3845 9.852C13.44 9.771 13.5 9.6405 13.5 9.375C13.5057 9.22132 13.4727 9.06868 13.404 8.93108C13.3354 8.79348 13.2332 8.67534 13.107 8.5875C12.7819 8.36292 12.3951 8.24498 12 8.25C11.4465 8.25 11.1075 8.385 10.89 8.5305C10.6705 8.68122 10.4946 8.88714 10.38 9.1275ZM13.5 16.5C13.5 16.8978 13.342 17.2794 13.0607 17.5607C12.7794 17.842 12.3978 18 12 18C11.6022 18 11.2206 17.842 10.9393 17.5607C10.658 17.2794 10.5 16.8978 10.5 16.5C10.5 16.1022 10.658 15.7206 10.9393 15.4393C11.2206 15.158 11.6022 15 12 15C12.3978 15 12.7794 15.158 13.0607 15.4393C13.342 15.7206 13.5 16.1022 13.5 16.5Z" fill="#B4B4B4"/>
    </g>
    <defs>
        <clipPath id="clip0_212_225">
            <rect width="24" height="24" fill="white"/>
        </clipPath>
    </defs>
</svg>
