<svg width="16" height="16" viewBox="0 0 16 16" fill="none" xmlns="http://www.w3.org/2000/svg">
    <g clip-path="url(#clip0_271_4)">
        <path d="M7.99997 0C8.23397 0.000326434 8.46785 0.0106692 8.70097 0.031C9.44397 0.095 9.98997 0.645 10.16 1.29L10.448 2.397C10.466 2.463 10.527 2.555 10.66 2.621C10.891 2.735 11.114 2.864 11.328 3.007C11.451 3.089 11.561 3.097 11.627 3.078L12.73 2.775C13.374 2.599 14.122 2.796 14.55 3.405C14.82 3.79 15.056 4.197 15.254 4.623C15.569 5.298 15.365 6.045 14.89 6.514L14.076 7.32C14.027 7.368 13.978 7.467 13.988 7.614C14.004 7.871 14.004 8.129 13.988 8.386C13.978 8.533 14.026 8.632 14.076 8.68L14.89 9.486C15.365 9.955 15.569 10.702 15.254 11.377C15.0556 11.8026 14.82 12.2098 14.55 12.594C14.122 13.204 13.374 13.401 12.73 13.224L11.628 12.922C11.561 12.903 11.451 12.911 11.328 12.993C11.1139 13.1361 10.8908 13.265 10.66 13.379C10.527 13.445 10.466 13.537 10.449 13.603L10.159 14.709C9.99097 15.355 9.44397 15.905 8.70097 15.969C8.23453 16.01 7.7654 16.01 7.29897 15.969C6.55597 15.905 6.00997 15.355 5.84097 14.709L5.55197 13.603C5.53397 13.537 5.47297 13.445 5.33997 13.379C5.10889 13.2655 4.88572 13.1365 4.67197 12.993C4.54897 12.911 4.43897 12.903 4.37297 12.922L3.26997 13.225C2.62597 13.401 1.87797 13.204 1.44997 12.595C1.18051 12.2101 0.944956 11.8026 0.745968 11.377C0.430968 10.702 0.634968 9.955 1.10897 9.486L1.92397 8.68C1.97397 8.632 2.02197 8.533 2.01197 8.386C1.99597 8.12892 1.99597 7.87108 2.01197 7.614C2.02197 7.467 1.97397 7.368 1.92397 7.32L1.10897 6.514C0.634968 6.045 0.430968 5.298 0.745968 4.623C0.944092 4.19727 1.17969 3.78999 1.44997 3.406C1.87797 2.796 2.62597 2.599 3.26997 2.776L4.37197 3.078C4.43897 3.097 4.54897 3.089 4.67197 3.007C4.88597 2.864 5.10897 2.735 5.33997 2.621C5.47297 2.555 5.53397 2.463 5.55097 2.397L5.84097 1.291C6.00897 0.645 6.55597 0.095 7.29897 0.03C7.52997 0.01 7.76397 0 7.99997 0ZM7.42897 1.525C7.39297 1.528 7.32097 1.561 7.29197 1.671L7.00297 2.776C6.85597 3.337 6.45397 3.743 6.00497 3.965C5.83197 4.051 5.66497 4.148 5.50497 4.255C5.08797 4.533 4.53497 4.678 3.97597 4.525L2.87297 4.222C2.76397 4.192 2.69797 4.238 2.67797 4.267C2.45797 4.579 2.26597 4.911 2.10497 5.257C2.09097 5.288 2.08397 5.367 2.16397 5.447L2.97897 6.253C3.38997 6.659 3.54097 7.21 3.50897 7.709C3.49697 7.90281 3.49697 8.09719 3.50897 8.291C3.54097 8.79 3.38997 9.341 2.97897 9.747L2.16397 10.553C2.08297 10.633 2.09097 10.712 2.10497 10.743C2.26697 11.089 2.45797 11.42 2.67797 11.732C2.69797 11.762 2.76297 11.808 2.87297 11.778L3.97497 11.475C4.53497 11.322 5.08797 11.467 5.50497 11.745C5.66597 11.852 5.83297 11.949 6.00597 12.035C6.45297 12.257 6.85597 12.664 7.00297 13.224L7.29197 14.329C7.32097 14.438 7.39297 14.472 7.42897 14.475C7.80892 14.508 8.19102 14.508 8.57097 14.475C8.60697 14.472 8.67897 14.439 8.70797 14.329L8.99697 13.224C9.14397 12.663 9.54597 12.257 9.99497 12.035C10.168 11.949 10.335 11.852 10.495 11.745C10.912 11.467 11.465 11.322 12.024 11.475L13.127 11.778C13.236 11.807 13.302 11.762 13.322 11.733C13.542 11.42 13.733 11.089 13.895 10.743C13.909 10.712 13.916 10.633 13.836 10.553L13.021 9.747C12.61 9.341 12.459 8.79 12.491 8.291C12.503 8.09719 12.503 7.90281 12.491 7.709C12.459 7.21 12.61 6.659 13.021 6.253L13.836 5.447C13.917 5.367 13.909 5.288 13.895 5.257C13.7335 4.91106 13.5418 4.5801 13.322 4.268C13.302 4.238 13.237 4.192 13.127 4.222L12.025 4.525C11.465 4.678 10.912 4.533 10.495 4.255C10.3345 4.14754 10.1671 4.05067 9.99397 3.965C9.54697 3.743 9.14397 3.336 8.99697 2.776L8.70797 1.671C8.67897 1.561 8.60697 1.528 8.57097 1.525C8.19102 1.492 7.80892 1.492 7.42897 1.525ZM11 8C11 8.79565 10.6839 9.55871 10.1213 10.1213C9.55868 10.6839 8.79562 11 7.99997 11C7.20432 11 6.44126 10.6839 5.87865 10.1213C5.31604 9.55871 4.99997 8.79565 4.99997 8C4.99997 7.20435 5.31604 6.44129 5.87865 5.87868C6.44126 5.31607 7.20432 5 7.99997 5C8.79562 5 9.55868 5.31607 10.1213 5.87868C10.6839 6.44129 11 7.20435 11 8ZM9.49997 8C9.49983 7.60204 9.34162 7.22044 9.06013 6.93913C8.77864 6.65783 8.39693 6.49987 7.99897 6.5C7.60101 6.50013 7.21941 6.65835 6.9381 6.93984C6.6568 7.22133 6.49884 7.60304 6.49897 8.001C6.4991 8.39896 6.65732 8.78056 6.93881 9.06187C7.07819 9.20116 7.24364 9.31163 7.42571 9.38697C7.60779 9.46232 7.80292 9.50107 7.99997 9.501C8.19702 9.50093 8.39212 9.46206 8.57415 9.38659C8.75617 9.31112 8.92155 9.20054 9.06083 9.06116C9.20012 8.92178 9.31059 8.75633 9.38594 8.57425C9.46129 8.39218 9.50003 8.19705 9.49997 8Z" fill="white"/>
    </g>
    <defs>
        <clipPath id="clip0_271_4">
            <rect width="16" height="16" fill="white"/>
        </clipPath>
    </defs>
</svg>
