<svg width="16" height="16" viewBox="0 0 16 16" fill="none" xmlns="http://www.w3.org/2000/svg">
    <path d="M7.99996 16C8.48722 16.0002 8.95777 15.8225 9.32327 15.5002C9.68876 15.178 9.92405 14.7334 9.98496 14.25C10.002 14.113 9.88796 14 9.74996 14H6.24996C6.11196 14 5.99796 14.113 6.01496 14.25C6.07587 14.7334 6.31116 15.178 6.67666 15.5002C7.04215 15.8225 7.51271 16.0002 7.99996 16ZM2.99996 5C2.99996 3.67392 3.52675 2.40215 4.46443 1.46447C5.40211 0.526784 6.67388 0 7.99996 0C9.32604 0 10.5978 0.526784 11.5355 1.46447C12.4732 2.40215 13 3.67392 13 5V7.947C13 7.997 13.015 8.045 13.042 8.086L14.745 10.641C14.8967 10.8697 14.9837 11.1352 14.9967 11.4093C15.0096 11.6835 14.948 11.956 14.8185 12.198C14.689 12.4399 14.4963 12.6423 14.2609 12.7835C14.0256 12.9247 13.7564 12.9995 13.482 13H2.51796C2.24294 13.0007 1.97292 12.9265 1.73682 12.7855C1.50072 12.6444 1.30743 12.4418 1.17766 12.1993C1.0479 11.9568 0.986534 11.6836 1.00015 11.4089C1.01377 11.1343 1.10185 10.8685 1.25496 10.64L2.95796 8.086C2.98514 8.04472 2.99973 7.99642 2.99996 7.947V5ZM7.99996 1.5C7.0717 1.5 6.18147 1.86875 5.52509 2.52513C4.86871 3.1815 4.49996 4.07174 4.49996 5V7.947C4.49996 8.293 4.39796 8.63 4.20596 8.917L2.50296 11.473C2.50094 11.4759 2.49989 11.4794 2.49996 11.483L2.50096 11.489C2.50096 11.491 2.50296 11.493 2.50496 11.495L2.51096 11.499L2.51796 11.5H13.482L13.489 11.499L13.495 11.495L13.499 11.489L13.5 11.482C13.5 11.4784 13.499 11.4749 13.497 11.472L11.794 8.918C11.6021 8.63088 11.4998 8.2933 11.5 7.948V5C11.5 4.07174 11.1312 3.1815 10.4748 2.52513C9.81846 1.86875 8.92822 1.5 7.99996 1.5Z" fill="#E3E3E3"/>
</svg>
