<svg width="12" height="12" viewBox="0 0 12 12" fill="none" xmlns="http://www.w3.org/2000/svg">
    <g clip-path="url(#clip0_240_115)">
        <path d="M8.00998 8.80498C7.10575 9.50684 5.96804 9.83774 4.82844 9.73032C3.68884 9.6229 2.633 9.08524 1.87585 8.22678C1.1187 7.36832 0.717148 6.25359 0.752934 5.10949C0.78872 3.9654 1.25915 2.87794 2.06848 2.06848C2.87794 1.25915 3.9654 0.78872 5.10949 0.752934C6.25359 0.717148 7.36832 1.1187 8.22678 1.87585C9.08524 2.633 9.6229 3.68884 9.73032 4.82844C9.83774 5.96804 9.50684 7.10575 8.80498 8.00998L11.085 10.29C11.159 10.3587 11.2131 10.4462 11.2417 10.5431C11.2702 10.6401 11.272 10.7429 11.247 10.8408C11.2219 10.9387 11.171 11.028 11.0994 11.0994C11.0279 11.1707 10.9384 11.2214 10.8405 11.2462C10.7427 11.2713 10.64 11.2695 10.5431 11.2412C10.4462 11.2128 10.3588 11.1588 10.29 11.085L8.00998 8.80498ZM8.62498 5.24998C8.63165 4.80268 8.5493 4.35852 8.38274 3.94334C8.21619 3.52816 7.96873 3.15024 7.65478 2.83157C7.34082 2.5129 6.96663 2.25984 6.55398 2.0871C6.14133 1.91437 5.69845 1.82542 5.2511 1.82542C4.80375 1.82542 4.36087 1.91437 3.94822 2.0871C3.53557 2.25984 3.16138 2.5129 2.84743 2.83157C2.53347 3.15024 2.28602 3.52816 2.11946 3.94334C1.9529 4.35852 1.87056 4.80268 1.87723 5.24998C1.89044 6.13607 2.25171 6.9814 2.883 7.60335C3.51429 8.22529 4.36491 8.57392 5.2511 8.57392C6.13729 8.57392 6.98792 8.22529 7.6192 7.60335C8.25049 6.9814 8.61176 6.13607 8.62498 5.24998Z" fill="#B4B4B4"/>
    </g>
    <defs>
        <clipPath id="clip0_240_115">
            <rect width="12" height="12" fill="white"/>
        </clipPath>
    </defs>
</svg>
