<svg width="16" height="16" viewBox="0 0 16 16" fill="none" xmlns="http://www.w3.org/2000/svg">
    <path d="M4 4C4 2.93913 4.42143 1.92172 5.17157 1.17157C5.92172 0.421427 6.93913 0 8 0C9.06087 0 10.0783 0.421427 10.8284 1.17157C11.5786 1.92172 12 2.93913 12 4V6H12.25C13.216 6 14 6.784 14 7.75V13.25C14 13.7141 13.8156 14.1592 13.4874 14.4874C13.1592 14.8156 12.7141 15 12.25 15H3.75C3.28587 15 2.84075 14.8156 2.51256 14.4874C2.18437 14.1592 2 13.7141 2 13.25V7.75C2 6.784 2.784 6 3.75 6H4V4ZM12.25 7.5H3.75C3.6837 7.5 3.62011 7.52634 3.57322 7.57322C3.52634 7.62011 3.5 7.6837 3.5 7.75V13.25C3.5 13.388 3.612 13.5 3.75 13.5H12.25C12.3163 13.5 12.3799 13.4737 12.4268 13.4268C12.4737 13.3799 12.5 13.3163 12.5 13.25V7.75C12.5 7.6837 12.4737 7.62011 12.4268 7.57322C12.3799 7.52634 12.3163 7.5 12.25 7.5ZM10.5 6V4C10.5 3.33696 10.2366 2.70107 9.76777 2.23223C9.29893 1.76339 8.66304 1.5 8 1.5C7.33696 1.5 6.70107 1.76339 6.23223 2.23223C5.76339 2.70107 5.5 3.33696 5.5 4V6H10.5Z" fill="white"/>
</svg>
