<svg width="298" height="22" viewBox="0 0 298 22" fill="none" xmlns="http://www.w3.org/2000/svg">
    <line y1="10.5" x2="298" y2="10.5" stroke="#B4B4B4"/>
    <rect x="129.5" y="0.5" width="38" height="21" rx="3.5" fill="#3E3E3E" stroke="#B4B4B4"/>
    <path d="M145.288 14.156C143.536 14.156 142.552 12.716 142.552 10.088C142.552 7.484 143.524 6.044 145.288 6.044C147.016 6.044 148.048 7.556 148.048 10.088C148.048 12.68 147.028 14.156 145.288 14.156ZM145.288 13.34C146.512 13.34 147.076 12.404 147.076 10.088C147.076 7.712 146.524 6.752 145.288 6.764C144.136 6.776 143.548 7.796 143.548 10.088C143.548 12.368 144.124 13.34 145.288 13.34ZM154.454 14H153.458C153.458 13.472 152.474 12.02 151.802 10.856C151.622 10.868 151.442 10.88 151.25 10.88H150.35V14H149.498V6.2H151.85C153.326 6.2 154.298 7.136 154.298 8.576C154.298 9.764 153.71 10.412 152.714 10.7C153.386 11.888 154.454 13.436 154.454 14ZM150.35 10.028H151.742C152.894 10.028 153.482 9.536 153.482 8.576C153.482 7.604 152.894 7.052 151.85 7.052H150.35V10.028Z" fill="#B4B4B4"/>
</svg>
