<svg width="17" height="17" viewBox="0 0 17 17" fill="none" xmlns="http://www.w3.org/2000/svg">
    <g clip-path="url(#clip0_200_285)">
        <path d="M11.3334 8.49984C11.3334 9.25128 11.0349 9.97195 10.5036 10.5033C9.9722 11.0347 9.25153 11.3332 8.50008 11.3332C7.74863 11.3332 7.02797 11.0347 6.49661 10.5033C5.96526 9.97195 5.66675 9.25128 5.66675 8.49984C5.66675 7.74839 5.96526 7.02772 6.49661 6.49637C7.02797 5.96501 7.74863 5.6665 8.50008 5.6665C9.25153 5.6665 9.9722 5.96501 10.5036 6.49637C11.0349 7.02772 11.3334 7.74839 11.3334 8.49984ZM10.2709 8.49984C10.2709 8.03018 10.0843 7.57976 9.75225 7.24767C9.42015 6.91557 8.96974 6.729 8.50008 6.729C8.03043 6.729 7.58001 6.91557 7.24791 7.24767C6.91582 7.57976 6.72925 8.03018 6.72925 8.49984C6.72925 8.96949 6.91582 9.41991 7.24791 9.75201C7.58001 10.0841 8.03043 10.2707 8.50008 10.2707C8.96974 10.2707 9.42015 10.0841 9.75225 9.75201C10.0843 9.41991 10.2709 8.96949 10.2709 8.49984Z" fill="#E3E3E3"/>
        <path d="M8.50003 0.708496C8.68845 0.708496 8.87686 0.714871 9.06457 0.728329C9.60503 0.767288 10.0173 1.16537 10.1356 1.652L10.3849 2.67908C10.3984 2.73433 10.4487 2.8002 10.5443 2.83562C10.7192 2.89866 10.8914 2.9702 11.0599 3.04954C11.152 3.09275 11.2342 3.0807 11.2831 3.05095L12.1862 2.50129C12.6133 2.24062 13.1857 2.25125 13.5958 2.60541C13.8805 2.85262 14.1483 3.11966 14.3948 3.40512C14.7497 3.81454 14.7596 4.38687 14.4989 4.8147L13.9492 5.71712C13.9195 5.766 13.9082 5.84816 13.9507 5.94025C14.03 6.10883 14.1015 6.28095 14.1653 6.45591C14.1993 6.55154 14.2659 6.60112 14.3211 6.61529L15.3482 6.86462C15.8348 6.98291 16.2329 7.39516 16.2712 7.93562C16.2981 8.31175 16.2981 8.68858 16.2712 9.0647C16.2329 9.60516 15.8348 10.0174 15.3482 10.1357L14.3211 10.385C14.2659 10.3985 14.2 10.4488 14.1646 10.5444C14.1015 10.7201 14.03 10.8922 13.9507 11.0601C13.9074 11.1522 13.9195 11.2343 13.9492 11.2832L14.4989 12.1863C14.7596 12.6135 14.7489 13.1858 14.3948 13.5959C14.1476 13.8807 13.8805 14.1484 13.5951 14.3949C13.1857 14.7498 12.6133 14.7597 12.1855 14.499L11.2831 13.9494C11.2342 13.9196 11.152 13.9083 11.0607 13.9508C10.8919 14.0302 10.7196 14.1018 10.5443 14.1654C10.4487 14.1994 10.3991 14.266 10.3849 14.3212L10.1356 15.3483C10.0173 15.835 9.60503 16.233 9.06457 16.2713C8.68845 16.2982 8.31161 16.2982 7.93549 16.2713C7.39503 16.233 6.98278 15.835 6.86449 15.3483L6.61515 14.3212C6.6017 14.266 6.5514 14.2001 6.45578 14.1647C6.28054 14.1018 6.10845 14.0304 5.94011 13.9508C5.84803 13.9076 5.76586 13.9196 5.71699 13.9494L4.81386 14.499C4.38674 14.7597 3.8144 14.7491 3.40428 14.3949C3.11953 14.1477 2.85178 13.8807 2.60528 13.5952C2.2504 13.1858 2.24049 12.6135 2.50115 12.1856L3.05082 11.2832C3.08057 11.2343 3.0919 11.1522 3.0494 11.0608C2.97 10.892 2.89838 10.7197 2.83478 10.5444C2.80078 10.4488 2.7342 10.3992 2.67895 10.385L1.65186 10.1357C1.16524 10.0174 0.767154 9.60516 0.728196 9.0647C0.701278 8.68882 0.701278 8.3115 0.728196 7.93562C0.767154 7.39516 1.16524 6.98291 1.65186 6.86462L2.67895 6.61529C2.7342 6.60183 2.80007 6.55154 2.83549 6.45591C2.89853 6.28025 2.97007 6.10812 3.0494 5.94025C3.09261 5.84816 3.08057 5.766 3.05082 5.71712L2.50115 4.814C2.24049 4.38687 2.25111 3.81454 2.60528 3.40441C2.85249 3.11966 3.11953 2.85191 3.40499 2.60541C3.8144 2.25054 4.38674 2.24062 4.81457 2.50129L5.71699 3.05095C5.76586 3.0807 5.84803 3.09204 5.94011 3.04954C6.1087 2.9702 6.28082 2.89866 6.45578 2.83491C6.5514 2.80091 6.60099 2.73433 6.61515 2.67908L6.86449 1.652C6.98278 1.16537 7.39503 0.767288 7.93549 0.728329C8.12178 0.715579 8.3102 0.708496 8.50003 0.708496ZM8.01128 1.7887C7.97232 1.79154 7.91565 1.82412 7.89724 1.90275L7.6472 2.92983C7.59424 3.13741 7.49071 3.32866 7.34585 3.48649C7.201 3.64432 7.01932 3.76384 6.81703 3.83437C6.67276 3.88669 6.53095 3.94554 6.39203 4.01075C6.19891 4.10416 5.98564 4.14827 5.77131 4.13912C5.55697 4.12997 5.34824 4.06786 5.16378 3.95833L4.26136 3.40866C4.19195 3.36616 4.12961 3.38316 4.09986 3.40866C3.85341 3.62253 3.62239 3.85355 3.40853 4.1C3.38303 4.12975 3.36603 4.19279 3.40853 4.2615L3.9582 5.16391C4.18061 5.53862 4.20045 5.99975 4.01061 6.39216C3.94541 6.53108 3.88656 6.6729 3.83424 6.81716C3.76379 7.0197 3.64423 7.20161 3.48625 7.34661C3.32827 7.49161 3.13681 7.59517 2.92899 7.64804L1.9019 7.89666C1.82399 7.91579 1.7914 7.97245 1.78857 8.01141C1.76519 8.33683 1.76519 8.6635 1.78857 8.98891C1.7914 9.02787 1.82399 9.08454 1.90261 9.10295L2.9297 9.353C3.13728 9.40595 3.32852 9.50948 3.48636 9.65434C3.64419 9.79919 3.76371 9.98087 3.83424 10.1832C3.88665 10.3277 3.94545 10.4693 4.01061 10.6082C4.20045 10.9999 4.18061 11.461 3.9582 11.8357L3.40853 12.7388C3.36603 12.8082 3.38303 12.8706 3.40853 12.9003C3.62174 13.1468 3.85336 13.3785 4.09986 13.5917C4.12961 13.6172 4.19265 13.6342 4.26136 13.5917L5.16378 13.042C5.34812 12.9322 5.55683 12.8698 5.77121 12.8606C5.98558 12.8513 6.1989 12.8954 6.39203 12.9889C6.53086 13.0547 6.67253 13.1135 6.81703 13.166C7.01956 13.2364 7.20147 13.356 7.34647 13.5139C7.49147 13.6719 7.59504 13.8634 7.6479 14.0712L7.89653 15.0983C7.91565 15.1762 7.97232 15.2088 8.01128 15.2116C8.33669 15.235 8.66337 15.235 8.98878 15.2116C9.02774 15.2088 9.0844 15.1762 9.10282 15.0976L9.35286 14.0705C9.40583 13.8628 9.50935 13.6715 9.6542 13.5136C9.79905 13.3556 9.98072 13.236 10.183 13.1652C10.3274 13.1135 10.4692 13.0548 10.608 12.9896C10.801 12.8962 11.0142 12.8521 11.2284 12.8612C11.4426 12.8704 11.6512 12.9325 11.8356 13.042L12.7387 13.5917C12.8081 13.6342 12.8704 13.6172 12.9002 13.5917C13.1467 13.3785 13.3783 13.1468 13.5915 12.9003C13.617 12.8706 13.634 12.8075 13.5915 12.7388L13.0419 11.8357C12.9324 11.6514 12.8703 11.4428 12.861 11.2286C12.8517 11.0144 12.8956 10.8013 12.9887 10.6082C13.0546 10.4693 13.1134 10.3277 13.1658 10.1832C13.2363 9.98063 13.3558 9.79872 13.5138 9.65372C13.6718 9.50872 13.8633 9.40515 14.0711 9.35229L15.0982 9.10366C15.1761 9.08454 15.2087 9.02787 15.2115 8.98891C15.2349 8.6635 15.2349 8.33683 15.2115 8.01141C15.2087 7.97245 15.1761 7.91579 15.0974 7.89737L14.0704 7.64733C13.6269 7.53966 13.3054 7.20462 13.1651 6.81716C13.1136 6.67269 13.055 6.53085 12.9894 6.39216C12.896 6.19904 12.8519 5.98578 12.8611 5.77144C12.8702 5.55711 12.9323 5.34838 13.0419 5.16391L13.5915 4.2615C13.634 4.19208 13.617 4.12975 13.5915 4.1C13.3777 3.85355 13.1466 3.62253 12.9002 3.40866C12.8704 3.38316 12.8074 3.36616 12.7387 3.40866L11.8356 3.95833C11.6512 4.06786 11.4426 4.12997 11.2284 4.13912C11.0142 4.14827 10.801 4.10416 10.608 4.01075C10.4692 3.9453 10.3274 3.88644 10.183 3.83437C9.98062 3.76371 9.79884 3.64407 9.65387 3.48613C9.5089 3.32818 9.40525 3.13683 9.35215 2.92912L9.10353 1.90204C9.0844 1.82412 9.02774 1.79154 8.98878 1.7887C8.66337 1.76533 8.33669 1.76533 8.01128 1.7887Z" fill="#E3E3E3"/>
    </g>
    <defs>
        <clipPath id="clip0_200_285">
            <rect width="17" height="17" fill="white"/>
        </clipPath>
    </defs>
</svg>
