<svg width="17" height="15" viewBox="0 0 17 15" fill="none" xmlns="http://www.w3.org/2000/svg">
    <path d="M2.125 2.03125C2.125 1.4275 2.68033 0.9375 3.36458 0.9375H7.26042C7.40131 0.9375 7.53644 0.986886 7.63607 1.07479C7.7357 1.1627 7.79167 1.28193 7.79167 1.40625C7.79167 1.53057 7.7357 1.6498 7.63607 1.73771C7.53644 1.82561 7.40131 1.875 7.26042 1.875H3.36458C3.31762 1.875 3.27258 1.89146 3.23937 1.92076C3.20616 1.95007 3.1875 1.98981 3.1875 2.03125V12.9688C3.1875 13.055 3.26683 13.125 3.36458 13.125H7.26042C7.40131 13.125 7.53644 13.1744 7.63607 13.2623C7.7357 13.3502 7.79167 13.4694 7.79167 13.5938C7.79167 13.7181 7.7357 13.8373 7.63607 13.9252C7.53644 14.0131 7.40131 14.0625 7.26042 14.0625H3.36458C3.03583 14.0625 2.72053 13.9473 2.48807 13.7421C2.2556 13.537 2.125 13.2588 2.125 12.9688V2.03125ZM13.4626 7.96875H7.61458C7.47369 7.96875 7.33856 7.91936 7.23893 7.83146C7.1393 7.74355 7.08333 7.62432 7.08333 7.5C7.08333 7.37568 7.1393 7.25645 7.23893 7.16854C7.33856 7.08064 7.47369 7.03125 7.61458 7.03125H13.4626L11.1251 4.85375C11.032 4.76298 10.9828 4.64368 10.9881 4.52135C10.9934 4.39902 11.0527 4.28336 11.1534 4.19912C11.254 4.11487 11.3881 4.06871 11.5268 4.07051C11.6655 4.07231 11.7979 4.12193 11.8958 4.20875L15.0833 7.1775C15.1768 7.26458 15.229 7.38001 15.229 7.5C15.229 7.61999 15.1768 7.73542 15.0833 7.8225L11.8958 10.7913C11.7979 10.8781 11.6655 10.9277 11.5268 10.9295C11.3881 10.9313 11.254 10.8851 11.1534 10.8009C11.0527 10.7166 10.9934 10.601 10.9881 10.4787C10.9828 10.3563 11.032 10.237 11.1251 10.1462L13.4626 7.96875Z" fill="#E3E3E3"/>
</svg>
