<svg width="24" height="23" viewBox="0 0 24 23" fill="none" xmlns="http://www.w3.org/2000/svg">
    <g clip-path="url(#clip0_108_31)">
        <path d="M0.83074 11.4999C0.83074 11.8985 0.96874 12.2435 1.24474 12.5349C1.52074 12.8262 1.86574 12.9642 2.27974 12.9489H3.70574C4.10441 12.9489 4.44174 12.8109 4.71774 12.5349C4.99374 12.2589 5.13941 11.9139 5.15474 11.4999C5.17007 11.0859 5.02441 10.7485 4.71774 10.4879C4.41107 10.2272 4.07374 10.0892 3.70574 10.0739H2.27974C1.88107 10.0739 1.53607 10.2119 1.24474 10.4879C0.953407 10.7639 0.815407 11.1012 0.83074 11.4999ZM3.77474 18.6069C3.77474 19.0055 3.92041 19.3505 4.21174 19.6419C4.50307 19.9332 4.84041 20.0712 5.22374 20.0559C5.60707 20.0405 5.94441 19.9025 6.23574 19.6419L7.24774 18.6299C7.53907 18.3385 7.68474 18.0012 7.68474 17.6179C7.68474 17.2345 7.53907 16.8972 7.24774 16.6059C6.95641 16.3145 6.61907 16.1689 6.23574 16.1689C5.85241 16.1689 5.51507 16.3145 5.22374 16.6059L4.21174 17.6179C3.92041 17.8939 3.77474 18.2235 3.77474 18.6069ZM3.77474 4.39287C3.77474 4.79154 3.92041 5.12887 4.21174 5.40487L5.22374 6.41687C5.49974 6.69287 5.83707 6.83087 6.23574 6.83087C6.63441 6.83087 6.97174 6.69287 7.24774 6.41687C7.52374 6.14087 7.66941 5.80354 7.68474 5.40487C7.70007 5.00621 7.55441 4.66887 7.24774 4.39287L6.23574 3.38087C5.95974 3.08954 5.62241 2.94387 5.22374 2.94387C4.82507 2.94387 4.48774 3.08954 4.21174 3.38087C3.93574 3.67221 3.79007 4.00954 3.77474 4.39287ZM6.58074 11.4999C6.58074 13.0945 7.14041 14.4515 8.25974 15.5709C9.37907 16.6902 10.7361 17.2499 12.3307 17.2499C13.9254 17.2499 15.2824 16.6902 16.4017 15.5709C17.5211 14.4515 18.0807 13.0945 18.0807 11.4999C18.0807 9.90521 17.5211 8.55587 16.4017 7.45187C15.2824 6.34787 13.9254 5.78054 12.3307 5.74987C10.7361 5.71921 9.37907 6.28654 8.25974 7.45187C7.14041 8.61721 6.58074 9.96654 6.58074 11.4999ZM9.45574 11.4999C9.45574 10.7179 9.73941 10.0432 10.3067 9.47587C10.8741 8.90854 11.5487 8.62487 12.3307 8.62487C13.1127 8.62487 13.7874 8.90854 14.3547 9.47587C14.9221 10.0432 15.2057 10.7179 15.2057 11.4999C15.2057 12.2819 14.9221 12.9642 14.3547 13.5469C13.7874 14.1295 13.1127 14.4055 12.3307 14.3749C11.5487 14.3442 10.8741 14.0682 10.3067 13.5469C9.73941 13.0255 9.45574 12.3432 9.45574 11.4999ZM10.9047 20.1249V21.5739C10.9047 21.9725 11.0427 22.3099 11.3187 22.5859C11.5947 22.8619 11.9321 22.9999 12.3307 22.9999C12.7294 22.9999 13.0667 22.8619 13.3427 22.5859C13.6187 22.3099 13.7644 21.9725 13.7797 21.5739V20.1249C13.7797 19.7262 13.6341 19.3889 13.3427 19.1129C13.0514 18.8369 12.7141 18.6989 12.3307 18.6989C11.9474 18.6989 11.6101 18.8369 11.3187 19.1129C11.0274 19.3889 10.8894 19.7262 10.9047 20.1249ZM10.9047 2.87487C10.9047 3.27354 11.0427 3.61854 11.3187 3.90987C11.5947 4.20121 11.9321 4.33921 12.3307 4.32387C12.7294 4.30854 13.0667 4.17054 13.3427 3.90987C13.6187 3.64921 13.7644 3.30421 13.7797 2.87487V1.44887C13.7797 1.05021 13.6341 0.712874 13.3427 0.436874C13.0514 0.160874 12.7141 0.0152079 12.3307 -0.000125465C11.9474 -0.0154588 11.6101 0.130208 11.3187 0.436874C11.0274 0.743541 10.8894 1.08087 10.9047 1.44887V2.87487ZM16.9997 17.6179C16.9997 18.0012 17.1377 18.3385 17.4137 18.6299L18.4257 19.6419C18.7017 19.9179 19.0391 20.0559 19.4377 20.0559C19.8364 20.0559 20.1814 19.9179 20.4727 19.6419C20.7641 19.3659 20.9021 19.0209 20.8867 18.6069C20.8714 18.1929 20.7334 17.8632 20.4727 17.6179L19.4607 16.6059C19.1694 16.3145 18.8244 16.1689 18.4257 16.1689C18.0271 16.1689 17.6897 16.3145 17.4137 16.6059C17.1377 16.8972 16.9997 17.2345 16.9997 17.6179ZM16.9997 5.40487C16.9997 5.80354 17.1377 6.14087 17.4137 6.41687C17.6897 6.69287 18.0271 6.83087 18.4257 6.83087C18.8244 6.83087 19.1694 6.69287 19.4607 6.41687L20.4727 5.40487C20.7487 5.12887 20.8867 4.79154 20.8867 4.39287C20.8867 3.99421 20.7487 3.65687 20.4727 3.38087C20.1967 3.10487 19.8517 2.95921 19.4377 2.94387C19.0237 2.92854 18.6864 3.07421 18.4257 3.38087L17.4137 4.39287C17.1377 4.66887 16.9997 5.00621 16.9997 5.40487ZM19.5297 11.4999C19.5297 11.8985 19.6677 12.2435 19.9437 12.5349C20.2197 12.8262 20.5571 12.9642 20.9557 12.9489H22.4047C22.7881 12.9489 23.1254 12.8109 23.4167 12.5349C23.7081 12.2589 23.8461 11.9139 23.8307 11.4999C23.8154 11.0859 23.6774 10.7485 23.4167 10.4879C23.1561 10.2272 22.8187 10.0892 22.4047 10.0739H20.9557C20.5571 10.0739 20.2197 10.2119 19.9437 10.4879C19.6677 10.7639 19.5297 11.1012 19.5297 11.4999Z" fill="#E3E3E3"/>
    </g>
    <defs>
        <clipPath id="clip0_108_31">
            <rect width="23" height="23" fill="white" transform="translate(0.830933)"/>
        </clipPath>
    </defs>
</svg>
