<svg width="16" height="16" viewBox="0 0 16 16" fill="none" xmlns="http://www.w3.org/2000/svg">
    <path d="M10.5611 8.07288C11.5456 8.53823 12.3851 9.26255 12.9896 10.1683C13.5941 11.0741 13.941 12.1271 13.9931 13.2149C13.9999 13.3145 13.9868 13.4145 13.9545 13.5091C13.9222 13.6036 13.8713 13.6907 13.8049 13.7653C13.7384 13.8398 13.6578 13.9004 13.5676 13.9434C13.4775 13.9864 13.3796 14.0109 13.2798 14.0156C13.1801 14.0203 13.0804 14.0049 12.9866 13.9705C12.8928 13.9362 12.8069 13.8834 12.7338 13.8153C12.6606 13.7472 12.6019 13.6653 12.5609 13.5742C12.5199 13.4831 12.4975 13.3847 12.4951 13.2849C12.4405 12.1294 11.9432 11.0393 11.1062 10.2409C10.2692 9.44241 9.15682 8.99695 8.00006 8.99695C6.8433 8.99695 5.73097 9.44241 4.89397 10.2409C4.05696 11.0393 3.55958 12.1294 3.50506 13.2849C3.49159 13.4805 3.40208 13.663 3.25568 13.7934C3.10929 13.9238 2.91766 13.9917 2.72183 13.9825C2.526 13.9734 2.34153 13.8879 2.20794 13.7444C2.07434 13.6009 2.00224 13.4109 2.00706 13.2149C2.05892 12.1272 2.4056 11.0742 3.00997 10.1684C3.61434 9.26263 4.45365 8.53828 5.43806 8.07288C4.80708 7.54656 4.35353 6.83866 4.13912 6.04545C3.9247 5.25224 3.95983 4.41224 4.23973 3.63971C4.51962 2.86718 5.0307 2.19961 5.70343 1.72783C6.37616 1.25604 7.17789 1.00293 7.99956 1.00293C8.82124 1.00293 9.62297 1.25604 10.2957 1.72783C10.9684 2.19961 11.4795 2.86718 11.7594 3.63971C12.0393 4.41224 12.0744 5.25224 11.86 6.04545C11.6456 6.83866 11.1921 7.54656 10.5611 8.07288ZM10.5001 4.99988C10.5001 4.33684 10.2367 3.70095 9.76783 3.23211C9.29899 2.76327 8.6631 2.49988 8.00006 2.49988C7.33702 2.49988 6.70114 2.76327 6.2323 3.23211C5.76346 3.70095 5.50006 4.33684 5.50006 4.99988C5.50006 5.66292 5.76346 6.2988 6.2323 6.76764C6.70114 7.23648 7.33702 7.49988 8.00006 7.49988C8.6631 7.49988 9.29899 7.23648 9.76783 6.76764C10.2367 6.2988 10.5001 5.66292 10.5001 4.99988Z" fill="#fff"/>
</svg>
