<svg width="16" height="16" viewBox="0 0 16 16" fill="none" xmlns="http://www.w3.org/2000/svg">
    <g clip-path="url(#clip0_200_306)">
        <path d="M0 8C0 5.87827 0.842855 3.84344 2.34315 2.34315C3.84344 0.842855 5.87827 0 8 0C10.1217 0 12.1566 0.842855 13.6569 2.34315C15.1571 3.84344 16 5.87827 16 8C16 10.1217 15.1571 12.1566 13.6569 13.6569C12.1566 15.1571 10.1217 16 8 16C5.87827 16 3.84344 15.1571 2.34315 13.6569C0.842855 12.1566 0 10.1217 0 8ZM8 1.5C6.27609 1.5 4.62279 2.18482 3.40381 3.40381C2.18482 4.62279 1.5 6.27609 1.5 8C1.5 9.72391 2.18482 11.3772 3.40381 12.5962C4.62279 13.8152 6.27609 14.5 8 14.5C9.72391 14.5 11.3772 13.8152 12.5962 12.5962C13.8152 11.3772 14.5 9.72391 14.5 8C14.5 6.27609 13.8152 4.62279 12.5962 3.40381C11.3772 2.18482 9.72391 1.5 8 1.5ZM6.92 6.085C6.83115 6.26296 6.67625 6.39834 6.48759 6.46135C6.29893 6.52436 6.09296 6.50985 5.915 6.421C5.73704 6.33215 5.60166 6.17625 5.53865 5.98759C5.47564 5.79893 5.49015 5.59296 5.579 5.415C5.748 5.076 6.015 4.714 6.428 4.438C6.845 4.16 7.369 4 8 4C8.58769 3.99598 9.16127 4.17994 9.637 4.525C10.14 4.902 10.5 5.49 10.5 6.25C10.5 6.698 10.385 7.08 10.171 7.4C9.966 7.707 9.701 7.913 9.479 8.062C9.37 8.134 9.259 8.2 9.166 8.257L9.16 8.261C9.07204 8.3122 8.98535 8.36555 8.9 8.421C8.7929 8.48388 8.69914 8.56711 8.624 8.666C8.51266 8.8291 8.34148 8.94171 8.14762 8.97937C7.95376 9.01704 7.75287 8.97672 7.58855 8.86718C7.42423 8.75763 7.30975 8.5877 7.26996 8.39427C7.23016 8.20083 7.26827 7.99951 7.376 7.834C7.56 7.57 7.796 7.345 8.068 7.173C8.171 7.106 8.275 7.041 8.381 6.978L8.388 6.974C8.488 6.913 8.57 6.864 8.646 6.813C8.75321 6.74987 8.84725 6.66669 8.923 6.568C8.96 6.514 9 6.427 9 6.25C9.0038 6.14755 8.9818 6.04579 8.93602 5.95405C8.89024 5.86232 8.82215 5.78356 8.738 5.725C8.52129 5.57528 8.26338 5.49665 8 5.5C7.631 5.5 7.405 5.59 7.26 5.687C7.11366 5.78748 6.99639 5.92476 6.92 6.085ZM9 11C9 11.2652 8.89464 11.5196 8.70711 11.7071C8.51957 11.8946 8.26522 12 8 12C7.73478 12 7.48043 11.8946 7.29289 11.7071C7.10536 11.5196 7 11.2652 7 11C7 10.7348 7.10536 10.4804 7.29289 10.2929C7.48043 10.1054 7.73478 10 8 10C8.26522 10 8.51957 10.1054 8.70711 10.2929C8.89464 10.4804 9 10.7348 9 11Z" fill="white"/>
    </g>
    <defs>
        <clipPath id="clip0_200_306">
            <rect width="16" height="16" fill="white"/>
        </clipPath>
    </defs>
</svg>
